<?xml version="1.0" encoding="utf-8"?><!DOCTYPE svg PUBLIC "-//W3C//DTD SVG 1.1//EN" "http://www.w3.org/Graphics/SVG/1.1/DTD/svg11.dtd"><svg version="1.1" xmlns="http://www.w3.org/2000/svg" xmlns:xlink="http://www.w3.org/1999/xlink" x="0px" y="0px" viewBox="0 0 100 95.91125" enable-background="new 0 0 100 76.729" xml:space="preserve"><path fill="#010101" d="M100,44.587c0-10.435-7.629-19.082-17.609-20.679c0.359-0.848,0.559-1.778,0.559-2.758
	c0-3.892-3.155-7.049-7.051-7.049c-1.783,0-3.407,0.668-4.649,1.761C70.361,6.957,62.848,0,53.709,0
	c-7.545,0-13.981,4.742-16.495,11.41c-4.005,1.696-7.548,4.27-10.395,7.474c-2.773-1.964-6.157-3.124-9.814-3.124
	C7.613,15.76,0,23.374,0,32.766c0,5.069,2.222,9.618,5.741,12.733c-2.703,1.731-4.498,4.762-4.498,8.21
	c0,5.384,4.364,9.748,9.748,9.748c1.401,0,2.732-0.3,3.938-0.831c3.138,7.316,10.406,12.442,18.872,12.442
	c6.583,0,12.437-3.1,16.195-7.918c0.493-0.022,0.984-0.062,1.473-0.108c2.438,5.694,8.096,9.688,14.684,9.688
	c7.207,0,13.3-4.776,15.283-11.337C91.881,64.209,100,55.349,100,44.587z"/></svg>