<svg xmlns="http://www.w3.org/2000/svg" xmlns:xlink="http://www.w3.org/1999/xlink" version="1.1" x="0px" y="0px" viewBox="0 0 100 125" enable-background="new 0 0 100 100" xml:space="preserve"><g><path d="M94.581,60.061c0,7.894-6.399,14.287-14.294,14.287c-5.815,0-10.823-3.478-13.045-8.472   c-3.772,2.882-8.477,4.59-13.586,4.59c-3.375,0-6.577-0.748-9.451-2.092c-2.662,3.1-6.605,5.061-11.008,5.061   c-5.2,0-9.761-2.729-12.319-6.837c-1.474,0.789-3.154,1.234-4.944,1.234c-5.81,0-10.515-4.706-10.515-10.514   c0-5.809,4.705-10.514,10.515-10.514c2.489,0,4.767,0.857,6.563,2.304c2.298-2.51,5.473-4.204,9.04-4.609   c1.7-10.686,10.96-18.847,22.119-18.847c7.283,0,13.765,3.477,17.853,8.868c1.248-0.411,2.586-0.637,3.979-0.637   c7.009,0,12.688,5.686,12.688,12.688c0,0.515-0.027,1.021-0.097,1.516C91.995,50.624,94.581,55.042,94.581,60.061z"/></g></svg>