<svg xmlns:dc="http://purl.org/dc/elements/1.1/" xmlns:cc="http://creativecommons.org/ns#" xmlns:rdf="http://www.w3.org/1999/02/22-rdf-syntax-ns#" xmlns:svg="http://www.w3.org/2000/svg" xmlns="http://www.w3.org/2000/svg" xmlns:sodipodi="http://sodipodi.sourceforge.net/DTD/sodipodi-0.dtd" xmlns:inkscape="http://www.inkscape.org/namespaces/inkscape" version="1.1" x="0px" y="0px" viewBox="0 0 100 125"><g transform="translate(0,-952.36218)"><path d="m 38,973.36217 c -11.59798,0 -21,9.402 -21,21 0,1.515 0.16394,2.9822 0.46875,4.4063 C 12.953,1002.0397 10,1007.3603 10,1013.3622 c 0,9.9411 8.05887,18 18,18 l 46,0 c 8.83656,0 16,-7.1634 16,-16 0,-8.5072 -6.65149,-15.43073 -15.03125,-15.93753 0.65784,-1.5553 1.03125,-3.2676 1.03125,-5.0625 0,-7.1797 -5.8203,-13 -13,-13 -2.6132,0 -5.05581,0.7668 -7.09375,2.0938 C 52.21859,977.41447 45.59597,973.36217 38,973.36217 z" style="color:#000000;enable-background:accumulate;" fill="#000000" stroke="none" marker="none" visibility="visible" display="inline" overflow="visible"/></g></svg>